<mxfile host="65bd71144e">
    <diagram id="CGz5gvUMxi6If3MVP1VV" name="image">
        <mxGraphModel dx="-1290" dy="1925" grid="1" gridSize="10" guides="1" tooltips="1" connect="1" arrows="1" fold="1" page="1" pageScale="1" pageWidth="827" pageHeight="1169" math="0" shadow="0">
            <root>
                <mxCell id="0"/>
                <mxCell id="1" parent="0"/>
                <mxCell id="mNiAzSfXenX0VxuWbp-_-2" value="" style="rounded=0;whiteSpace=wrap;html=1;fillColor=#dae8fc;strokeColor=#6c8ebf;shadow=0;" parent="1" vertex="1">
                    <mxGeometry x="2590" y="-930" width="580" height="180" as="geometry"/>
                </mxCell>
                <mxCell id="mNiAzSfXenX0VxuWbp-_-18" value="HTTPLogger&lt;br&gt;(middleware)" style="rounded=1;whiteSpace=wrap;html=1;fontSize=14;strokeColor=#b85450;fillColor=#f8cecc;" parent="1" vertex="1">
                    <mxGeometry x="2770" y="-920" width="100" height="160" as="geometry"/>
                </mxCell>
                <mxCell id="3" value="Handler&lt;br&gt;" style="rounded=1;whiteSpace=wrap;html=1;fontSize=14;strokeColor=#d6b656;fillColor=#fff2cc;" parent="1" vertex="1">
                    <mxGeometry x="3080" y="-920" width="80" height="160" as="geometry"/>
                </mxCell>
                <mxCell id="5" value="middleware" style="rounded=1;whiteSpace=wrap;html=1;fontSize=14;strokeColor=#6c8ebf;fillColor=default;" parent="1" vertex="1">
                    <mxGeometry x="2600" y="-920" width="80" height="160" as="geometry"/>
                </mxCell>
                <mxCell id="7" value="..." style="rounded=1;whiteSpace=wrap;html=1;fontSize=14;strokeColor=#6c8ebf;fillColor=default;" parent="1" vertex="1">
                    <mxGeometry x="2690" y="-920" width="30" height="160" as="geometry"/>
                </mxCell>
                <mxCell id="8" value="..." style="rounded=1;whiteSpace=wrap;html=1;fontSize=14;strokeColor=#6c8ebf;fillColor=default;" parent="1" vertex="1">
                    <mxGeometry x="2730" y="-920" width="30" height="160" as="geometry"/>
                </mxCell>
                <mxCell id="9" value="middleware" style="rounded=1;whiteSpace=wrap;html=1;fontSize=14;strokeColor=#6c8ebf;fillColor=default;" parent="1" vertex="1">
                    <mxGeometry x="2960" y="-920" width="80" height="160" as="geometry"/>
                </mxCell>
                <mxCell id="10" value="..." style="rounded=1;whiteSpace=wrap;html=1;fontSize=14;strokeColor=#6c8ebf;fillColor=default;" parent="1" vertex="1">
                    <mxGeometry x="2920" y="-920" width="30" height="160" as="geometry"/>
                </mxCell>
                <mxCell id="11" value="..." style="rounded=1;whiteSpace=wrap;html=1;fontSize=14;strokeColor=#6c8ebf;fillColor=default;" parent="1" vertex="1">
                    <mxGeometry x="2880" y="-920" width="30" height="160" as="geometry"/>
                </mxCell>
                <mxCell id="14" style="edgeStyle=none;html=1;exitX=0.5;exitY=1;exitDx=0;exitDy=0;entryX=0.5;entryY=0;entryDx=0;entryDy=0;" edge="1" parent="1" source="12" target="13">
                    <mxGeometry relative="1" as="geometry"/>
                </mxCell>
                <mxCell id="12" value="Logger" style="rounded=1;whiteSpace=wrap;html=1;fontSize=14;strokeColor=#b85450;fillColor=default;" vertex="1" parent="1">
                    <mxGeometry x="2790" y="-800" width="60" height="30" as="geometry"/>
                </mxCell>
                <mxCell id="13" value="......................&lt;br&gt;......................" style="shape=document;whiteSpace=wrap;html=1;boundedLbl=1;fillColor=#f5f5f5;fontColor=#333333;strokeColor=#666666;size=0.2;" vertex="1" parent="1">
                    <mxGeometry x="2770" y="-710" width="100" height="50" as="geometry"/>
                </mxCell>
                <mxCell id="15" value="Output access or journal logs." style="text;html=1;strokeColor=none;fillColor=none;align=center;verticalAlign=middle;whiteSpace=wrap;rounded=0;" vertex="1" parent="1">
                    <mxGeometry x="2830" y="-750" width="90" height="40" as="geometry"/>
                </mxCell>
                <mxCell id="16" value="" style="shape=flexArrow;endArrow=classic;html=1;" edge="1" parent="1">
                    <mxGeometry width="50" height="50" relative="1" as="geometry">
                        <mxPoint x="2520" y="-870" as="sourcePoint"/>
                        <mxPoint x="2580" y="-870" as="targetPoint"/>
                    </mxGeometry>
                </mxCell>
                <mxCell id="17" value="Request" style="text;html=1;strokeColor=none;fillColor=none;align=center;verticalAlign=middle;whiteSpace=wrap;rounded=0;" vertex="1" parent="1">
                    <mxGeometry x="2520" y="-910" width="60" height="20" as="geometry"/>
                </mxCell>
                <mxCell id="18" value="" style="shape=flexArrow;endArrow=classic;html=1;" edge="1" parent="1">
                    <mxGeometry width="50" height="50" relative="1" as="geometry">
                        <mxPoint x="2580" y="-810" as="sourcePoint"/>
                        <mxPoint x="2520" y="-810" as="targetPoint"/>
                    </mxGeometry>
                </mxCell>
                <mxCell id="19" value="Response" style="text;html=1;strokeColor=none;fillColor=none;align=center;verticalAlign=middle;whiteSpace=wrap;rounded=0;" vertex="1" parent="1">
                    <mxGeometry x="2520" y="-790" width="60" height="20" as="geometry"/>
                </mxCell>
            </root>
        </mxGraphModel>
    </diagram>
</mxfile>